<svg xmlns="http://www.w3.org/2000/svg" viewBox="0 0 64 64">
  <defs>
    <linearGradient id="bg" x1="8" y1="6" x2="56" y2="58" gradientUnits="userSpaceOnUse">
      <stop stop-color="#2563eb"/>
      <stop offset="0.48" stop-color="#4f46e5"/>
      <stop offset="1" stop-color="#0f172a"/>
    </linearGradient>
    <linearGradient id="shine" x1="18" y1="12" x2="44" y2="46" gradientUnits="userSpaceOnUse">
      <stop stop-color="#fff" stop-opacity="0.92"/>
      <stop offset="1" stop-color="#bfdbfe" stop-opacity="0.86"/>
    </linearGradient>
  </defs>
  <rect width="64" height="64" rx="18" fill="url(#bg)"/>
  <path d="M16.6 31.2 20 22.9A6.3 6.3 0 0 1 25.8 19h12.4a6.3 6.3 0 0 1 5.8 3.9l3.4 8.3" fill="none" stroke="url(#shine)" stroke-width="4.4" stroke-linecap="round" stroke-linejoin="round"/>
  <path d="M15 30h34a6 6 0 0 1 6 6v7.1a4.4 4.4 0 0 1-4.4 4.4H13.4A4.4 4.4 0 0 1 9 43.1V36a6 6 0 0 1 6-6Z" fill="#dbeafe" fill-opacity="0.18"/>
  <path d="M15 30h34a6 6 0 0 1 6 6v7.1a4.4 4.4 0 0 1-4.4 4.4H13.4A4.4 4.4 0 0 1 9 43.1V36a6 6 0 0 1 6-6Z" fill="none" stroke="url(#shine)" stroke-width="4.4" stroke-linecap="round" stroke-linejoin="round"/>
  <path d="M19 47.5v3M45 47.5v3M20 39h.1M44 39h.1M26 39h12" fill="none" stroke="#fff" stroke-width="4.4" stroke-linecap="round" stroke-linejoin="round"/>
</svg>
